<?xml version="1.0" encoding="UTF-8" standalone="no"?>
<!-- Created with Inkscape (http://www.inkscape.org/) -->

<svg
   width="53.262001mm"
   height="16.743999mm"
   viewBox="0 0 53.262001 16.743999"
   version="1.1"
   id="svg5"
   sodipodi:docname="eptran_logo.svg"
   inkscape:version="1.1.2 (b8e25be833, 2022-02-05)"
   xmlns:inkscape="http://www.inkscape.org/namespaces/inkscape"
   xmlns:sodipodi="http://sodipodi.sourceforge.net/DTD/sodipodi-0.dtd"
   xmlns="http://www.w3.org/2000/svg"
   xmlns:svg="http://www.w3.org/2000/svg">
  <sodipodi:namedview
     id="namedview7"
     pagecolor="#444444"
     bordercolor="#666666"
     borderopacity="1.0"
     inkscape:pageshadow="2"
     inkscape:pageopacity="0"
     inkscape:pagecheckerboard="true"
     inkscape:document-units="mm"
     showgrid="false"
     inkscape:zoom="2.9611953"
     inkscape:cx="95.907217"
     inkscape:cy="55.04534"
     inkscape:window-width="1920"
     inkscape:window-height="1017"
     inkscape:window-x="-8"
     inkscape:window-y="-8"
     inkscape:window-maximized="1"
     inkscape:current-layer="g123611" />
  <defs
     id="defs2">
    <rect
       x="221.12047"
       y="400.21371"
       width="950.7854"
       height="63.757198"
       id="rect78332" />
    <rect
       x="250.91219"
       y="335.33755"
       width="272.52368"
       height="63.128952"
       id="rect7986" />
    <rect
       x="250.91219"
       y="335.33755"
       width="272.52368"
       height="63.128952"
       id="rect47960" />
    <rect
       x="250.91219"
       y="335.33755"
       width="272.52368"
       height="63.128952"
       id="rect49862" />
    <rect
       x="250.91219"
       y="335.33755"
       width="272.52368"
       height="63.128952"
       id="rect51830" />
    <rect
       x="250.91219"
       y="335.33755"
       width="272.52368"
       height="63.128952"
       id="rect53302" />
    <rect
       x="250.91219"
       y="335.33755"
       width="272.52368"
       height="63.128952"
       id="rect54874" />
    <rect
       x="250.91219"
       y="335.33755"
       width="272.52368"
       height="63.128952"
       id="rect56194" />
    <rect
       x="221.12047"
       y="400.21371"
       width="950.7854"
       height="63.757198"
       id="rect94204" />
    <rect
       x="221.12047"
       y="400.21371"
       width="950.7854"
       height="63.757198"
       id="rect105126" />
  </defs>
  <g
     inkscape:label="Camada 1"
     inkscape:groupmode="layer"
     id="layer1">
    <path
       style="fill:#ffffff;fill-opacity:1;stroke-width:1"
       id="path890"
       d="" />
    <g
       id="g109924"
       transform="matrix(1,0,0,1.0000048,-59.794188,-94.619276)"
       style="stroke-width:0.999998">
      <g
         id="g123611">
        <path
           id="path123827"
           style="font-weight:bold;font-size:40px;line-height:1.15;font-family:Arial;-inkscape-font-specification:Arial;letter-spacing:20.5014px;word-spacing:5.84755px;white-space:pre;fill:#ffffff;stroke-width:1"
           d="M 45.878906 0 L 45.878906 12.291016 L 54.033203 12.291016 L 54.033203 10.21875 L 48.042969 10.21875 L 48.042969 6.875 L 53.425781 6.875 L 53.425781 4.8046875 L 48.042969 4.8046875 L 48.042969 2.0800781 L 53.828125 2.0800781 L 53.828125 0 L 45.878906 0 z M 65.220703 0 L 65.220703 12.291016 L 67.511719 12.291016 L 67.511719 7.6542969 L 69.005859 7.6542969 C 70.042758 7.6542969 70.834037 7.5958831 71.380859 7.4785156 C 71.78324 7.3835004 72.177553 7.1910226 72.564453 6.9003906 C 72.956516 6.6041675 73.278473 6.1977883 73.53125 5.6835938 C 73.784025 5.1693966 73.910156 4.5357783 73.910156 3.78125 C 73.910156 2.803164 73.692397 2.0073792 73.253906 1.3925781 C 72.815418 0.7721909 72.271089 0.36803558 71.621094 0.18359375 C 71.198079 0.06063253 70.289334 0 68.896484 0 L 65.220703 0 z M 84.109375 0 L 84.109375 2.0800781 L 87.474609 2.0800781 L 87.474609 12.291016 L 89.765625 12.291016 L 89.765625 2.0800781 L 93.123047 2.0800781 L 93.123047 0 L 84.109375 0 z M 104.6582 0 L 104.6582 12.291016 L 106.94922 12.291016 L 106.94922 7.1601562 L 107.41406 7.1601562 C 107.94024 7.1601562 108.32394 7.2077166 108.56641 7.3027344 C 108.80886 7.3921534 109.03724 7.562937 109.25391 7.8144531 C 109.47057 8.0603705 109.87285 8.6595007 110.46094 9.6152344 L 112.11719 12.291016 L 114.85742 12.291016 L 113.47266 9.8925781 C 112.92583 8.9368419 112.48906 8.2709517 112.16406 7.8964844 C 111.84422 7.5220145 111.43664 7.1801767 110.94141 6.8671875 C 111.93704 6.7106942 112.68516 6.3324075 113.18555 5.734375 C 113.68594 5.1307538 113.93555 4.3675141 113.93555 3.4453125 C 113.93555 2.7187326 113.77156 2.0742635 113.44141 1.5097656 C 113.11125 0.94527284 112.66917 0.5539165 112.11719 0.3359375 C 111.57037 0.11236477 110.69081 0 109.47852 0 L 104.6582 0 z M 127.35742 0 L 122.93945 12.291016 L 125.36914 12.291016 L 126.30469 9.4980469 L 130.83984 9.4980469 L 131.83008 12.291016 L 134.32227 12.291016 L 129.7793 0 L 127.35742 0 z M 143.08984 0 L 143.08984 12.291016 L 145.44336 12.291016 L 145.44336 4.2753906 L 150.50195 12.291016 L 153.04492 12.291016 L 153.04492 0 L 150.69141 0 L 150.69141 8.2070312 L 145.55469 0 L 143.08984 0 z M 67.511719 2.0800781 L 68.617188 2.0800781 C 69.442581 2.0800781 69.992214 2.1062225 70.265625 2.1621094 C 70.637042 2.2347674 70.945031 2.4163993 71.1875 2.7070312 C 71.429969 2.9976657 71.550781 3.3673253 71.550781 3.8144531 C 71.550781 4.1777431 71.462505 4.4956679 71.287109 4.7695312 C 71.116869 5.0433921 70.880535 5.2444919 70.576172 5.3730469 C 70.271809 5.5016018 69.668398 5.5664062 68.765625 5.5664062 L 67.511719 5.5664062 L 67.511719 2.0800781 z M 106.94922 2.0800781 L 108.73633 2.0800781 C 109.66488 2.0800781 110.22248 2.0931251 110.4082 2.1210938 C 110.77962 2.1881605 111.06638 2.3503221 111.26758 2.6074219 C 111.47394 2.8589305 111.57617 3.1918756 111.57617 3.6054688 C 111.57617 3.9743449 111.49851 4.2814213 111.34375 4.5273438 C 111.18899 4.7732536 110.97458 4.9462635 110.70117 5.046875 C 110.42776 5.1474865 109.74138 5.1972656 108.64258 5.1972656 L 106.94922 5.1972656 L 106.94922 2.0800781 z M 128.54102 2.8671875 L 130.10352 7.4277344 L 127.00977 7.4277344 L 128.54102 2.8671875 z M 64.673828 18.681641 L 34.035156 49.654297 L 52.800781 49.654297 L 75.335938 18.681641 L 64.673828 18.681641 z M 86.080078 18.681641 L 71.837891 49.654297 L 91.027344 49.654297 L 95.136719 18.681641 L 86.080078 18.681641 z M 105.19531 18.681641 L 109.30469 49.654297 L 128.49414 49.654297 L 114.25195 18.681641 L 105.19531 18.681641 z M 124.99414 18.681641 L 147.53125 49.654297 L 166.29688 49.654297 L 135.65625 18.681641 L 124.99414 18.681641 z M 44.4375 18.958984 L 2.0371094 49.654297 L 18.416016 49.654297 L 53.75 18.958984 L 44.4375 18.958984 z M 146.58203 18.958984 L 181.91602 49.654297 L 198.29492 49.654297 L 155.89453 18.958984 L 146.58203 18.958984 z M 65.564453 54.472656 L 64.519531 56.136719 L 65.560547 56.136719 L 67.052734 54.556641 L 67.052734 54.472656 L 65.564453 54.472656 z M 156.45703 54.515625 L 155.09766 56.179688 L 156.19922 56.179688 L 156.97852 55.251953 L 157.76172 56.179688 L 158.88086 56.179688 L 157.52148 54.515625 L 156.45703 54.515625 z M 27.160156 56.712891 C 26.1462 56.712891 25.351567 57.009295 24.775391 57.599609 C 24.199214 58.187077 23.912109 58.987977 23.912109 60.001953 C 23.912109 61.007438 24.199214 61.805326 24.775391 62.398438 C 25.351567 62.988752 26.1462 63.285156 27.160156 63.285156 C 28.176937 63.285156 28.974605 62.988752 29.550781 62.398438 C 30.126958 61.805326 30.414062 61.007438 30.414062 60.001953 C 30.414063 58.987977 30.125876 58.187077 29.546875 57.599609 C 28.967874 57.009295 28.171288 56.712891 27.160156 56.712891 z M 198.05273 56.712891 C 197.03879 56.712891 196.24219 57.009295 195.66602 57.599609 C 195.08984 58.187077 194.80273 58.987977 194.80273 60.001953 C 194.80273 61.007438 195.08984 61.805326 195.66602 62.398438 C 196.24219 62.988752 197.03879 63.285156 198.05273 63.285156 C 199.06953 63.285156 199.86523 62.988752 200.44141 62.398438 C 201.01758 61.805326 201.30664 61.007438 201.30664 60.001953 C 201.30664 58.987977 201.0165 58.187077 200.4375 57.599609 C 199.85848 57.009295 199.06386 56.712891 198.05273 56.712891 z M 18.796875 56.722656 C 18.351041 56.731588 17.937934 56.808258 17.556641 56.951172 C 17.152753 57.103689 16.813028 57.319999 16.539062 57.599609 C 16.253799 57.890508 16.036413 58.237802 15.886719 58.644531 C 15.737024 59.051236 15.662109 59.505926 15.662109 60.005859 C 15.662109 60.542479 15.741146 61.014277 15.896484 61.423828 C 16.05465 61.833355 16.275283 62.175252 16.560547 62.449219 C 16.84581 62.723261 17.186615 62.930028 17.582031 63.068359 C 17.98027 63.206691 18.413965 63.275391 18.882812 63.275391 L 18.882812 63.277344 C 19.199144 63.277344 19.448144 63.261461 19.628906 63.230469 C 19.809661 63.199225 20.002799 63.152963 20.208984 63.09375 C 20.367145 63.048647 20.518059 62.99583 20.662109 62.933594 C 20.80616 62.871357 20.957074 62.804927 21.115234 62.734375 L 21.115234 61.226562 L 20.945312 61.226562 C 20.869067 61.294342 20.772924 61.373568 20.654297 61.466797 C 20.535685 61.560026 20.405984 61.648579 20.267578 61.730469 C 20.103776 61.832265 19.925366 61.91149 19.730469 61.970703 C 19.538398 62.029916 19.342226 62.060547 19.144531 62.060547 C 18.93835 62.060547 18.729408 62.027899 18.517578 61.962891 C 18.305756 61.895111 18.113702 61.784372 17.941406 61.628906 C 17.771952 61.476389 17.630561 61.265475 17.517578 61 C 17.407417 60.7345 17.353516 60.405182 17.353516 60.009766 C 17.353516 59.631282 17.40419 59.308444 17.505859 59.042969 C 17.610373 58.777468 17.745483 58.565306 17.912109 58.404297 C 18.087217 58.237493 18.278189 58.117427 18.484375 58.046875 C 18.690543 57.973552 18.907931 57.9375 19.136719 57.9375 C 19.3429 57.9375 19.536035 57.969013 19.716797 58.03125 C 19.897562 58.093235 20.065365 58.169308 20.220703 58.259766 C 20.373217 58.350223 20.510279 58.441927 20.628906 58.535156 C 20.75033 58.628385 20.850595 58.709564 20.929688 58.777344 L 21.115234 58.777344 L 21.115234 57.248047 C 20.99943 57.191606 20.864323 57.129461 20.708984 57.064453 C 20.556463 56.996673 20.384541 56.936482 20.195312 56.882812 C 20.014548 56.834686 19.818168 56.797752 19.603516 56.769531 C 19.391688 56.738539 19.152213 56.722656 18.886719 56.722656 C 18.85671 56.722656 18.826597 56.722061 18.796875 56.722656 z M 97.660156 56.722656 C 97.214322 56.731588 96.801215 56.808258 96.419922 56.951172 C 96.016034 57.103689 95.678262 57.319999 95.404297 57.599609 C 95.119036 57.890508 94.901648 58.237802 94.751953 58.644531 C 94.602259 59.051236 94.527344 59.505926 94.527344 60.005859 C 94.527344 60.542479 94.604427 61.014277 94.759766 61.423828 C 94.917931 61.833355 95.138567 62.175252 95.423828 62.449219 C 95.709092 62.723261 96.049896 62.930028 96.445312 63.068359 C 96.843551 63.206691 97.277243 63.275391 97.746094 63.275391 L 97.746094 63.277344 C 98.062423 63.277344 98.311425 63.261461 98.492188 63.230469 C 98.672945 63.199225 98.86608 63.152963 99.072266 63.09375 C 99.230424 63.048647 99.38134 62.99583 99.525391 62.933594 C 99.669441 62.871357 99.820355 62.804927 99.978516 62.734375 L 99.978516 61.226562 L 99.810547 61.226562 C 99.734301 61.294342 99.636205 61.373568 99.517578 61.466797 C 99.398941 61.560026 99.26924 61.648579 99.130859 61.730469 C 98.967034 61.832265 98.788622 61.91149 98.59375 61.970703 C 98.401677 62.029916 98.20746 62.060547 98.009766 62.060547 C 97.803585 62.060547 97.594642 62.027899 97.382812 61.962891 C 97.170993 61.895111 96.978937 61.784372 96.806641 61.628906 C 96.637184 61.476389 96.495795 61.265475 96.382812 61 C 96.272652 60.7345 96.216797 60.405182 96.216797 60.009766 C 96.216797 59.631282 96.267471 59.308444 96.369141 59.042969 C 96.473655 58.777468 96.608764 58.565306 96.775391 58.404297 C 96.950499 58.237493 97.14147 58.117427 97.347656 58.046875 C 97.55385 57.973552 97.771238 57.9375 98 57.9375 C 98.206181 57.9375 98.399316 57.969013 98.580078 58.03125 C 98.76084 58.093235 98.930599 58.169308 99.085938 58.259766 C 99.238454 58.350223 99.373561 58.441927 99.492188 58.535156 C 99.613636 58.628385 99.713876 58.709564 99.792969 58.777344 L 99.978516 58.777344 L 99.978516 57.248047 C 99.862713 57.191606 99.727604 57.129461 99.572266 57.064453 C 99.419742 56.996673 99.249775 56.936482 99.060547 56.882812 C 98.879785 56.834686 98.681449 56.797752 98.466797 56.769531 C 98.254967 56.738539 98.015494 56.722656 97.75 56.722656 C 97.719991 56.722656 97.689879 56.722061 97.660156 56.722656 z M 10.414062 56.728516 C 9.5865173 56.728516 8.9090232 56.916248 8.3808594 57.289062 C 7.8555227 57.659055 7.5917969 58.137117 7.5917969 58.724609 C 7.5917969 59.162382 7.7078437 59.529604 7.9394531 59.826172 C 8.1738771 60.119843 8.5569048 60.353043 9.0878906 60.525391 C 9.31949 60.601485 9.5654554 60.665899 9.828125 60.716797 C 10.093612 60.764923 10.344778 60.816606 10.582031 60.873047 C 10.807979 60.926716 10.979898 61.003673 11.095703 61.105469 C 11.21433 61.204493 11.273438 61.322606 11.273438 61.460938 C 11.273438 61.610608 11.232306 61.724434 11.150391 61.800781 C 11.071298 61.876876 10.969974 61.94129 10.845703 61.992188 C 10.744016 62.030991 10.612155 62.058534 10.451172 62.076172 C 10.290177 62.09381 10.161347 62.103516 10.0625 62.103516 C 9.6783841 62.103516 9.2773857 62.030845 8.859375 61.886719 C 8.4441889 61.742668 8.0685252 61.535901 7.7324219 61.267578 L 7.5546875 61.267578 L 7.5546875 62.78125 C 7.8936154 62.922353 8.2556377 63.037631 8.6425781 63.130859 C 9.0323457 63.221317 9.4892066 63.267578 10.011719 63.267578 C 10.915522 63.267578 11.628958 63.074425 12.154297 62.6875 C 12.682458 62.297728 12.947266 61.791304 12.947266 61.169922 C 12.947266 60.734972 12.831219 60.382473 12.599609 60.111328 C 12.370832 59.837437 12.014221 59.621128 11.53125 59.462891 C 11.285525 59.383772 11.056449 59.320493 10.841797 59.275391 C 10.629977 59.230036 10.407391 59.184593 10.175781 59.136719 C 9.822728 59.063396 9.582171 58.982217 9.4550781 58.894531 C 9.3279852 58.804074 9.265625 58.676318 9.265625 58.509766 C 9.265625 58.399655 9.3056727 58.301459 9.3847656 58.216797 C 9.4638333 58.129111 9.5578081 58.063815 9.6679688 58.021484 C 9.7922522 57.971342 9.9199974 57.93756 10.052734 57.919922 C 10.188319 57.899764 10.325378 57.890625 10.460938 57.890625 C 10.845053 57.890625 11.22072 57.959325 11.587891 58.097656 C 11.957886 58.233241 12.269242 58.402129 12.523438 58.605469 L 12.697266 58.605469 L 12.697266 57.152344 C 12.400704 57.030894 12.049291 56.930681 11.642578 56.851562 C 11.23869 56.769672 10.829249 56.728516 10.414062 56.728516 z M 174.96289 56.728516 C 174.13535 56.728516 173.45786 56.916248 172.92969 57.289062 C 172.40436 57.659055 172.14062 58.137117 172.14062 58.724609 C 172.14062 59.162382 172.25672 59.529604 172.48828 59.826172 C 172.72269 60.119843 173.10572 60.353043 173.63672 60.525391 C 173.8683 60.601485 174.11428 60.665899 174.37695 60.716797 C 174.64235 60.764923 174.89546 60.816606 175.13281 60.873047 C 175.35865 60.926716 175.52863 61.003673 175.64453 61.105469 C 175.76321 61.204493 175.82227 61.322606 175.82227 61.460938 C 175.82227 61.610608 175.78111 61.724434 175.69922 61.800781 C 175.6201 61.876876 175.51875 61.94129 175.39453 61.992188 C 175.29289 62.030991 175.16101 62.058534 175 62.076172 C 174.83892 62.09381 174.7101 62.103516 174.61133 62.103516 C 174.22723 62.103516 173.82622 62.030845 173.4082 61.886719 C 172.99301 61.742668 172.61735 61.535901 172.28125 61.267578 L 172.10352 61.267578 L 172.10352 62.78125 C 172.44244 62.922353 172.80446 63.037631 173.19141 63.130859 C 173.58118 63.221317 174.03804 63.267578 174.56055 63.267578 C 175.46436 63.267578 176.1778 63.074425 176.70312 62.6875 C 177.2313 62.297728 177.49609 61.791304 177.49609 61.169922 C 177.49609 60.734972 177.38 60.382473 177.14844 60.111328 C 176.91965 59.837437 176.56303 59.621128 176.08008 59.462891 C 175.83436 59.383772 175.6053 59.320493 175.39062 59.275391 C 175.17877 59.230036 174.95617 59.184593 174.72461 59.136719 C 174.37145 59.063396 174.1309 58.982217 174.00391 58.894531 C 173.87691 58.804074 173.81445 58.676318 173.81445 58.509766 C 173.81445 58.399655 173.85448 58.301459 173.93359 58.216797 C 174.01271 58.129111 174.10669 58.063815 174.2168 58.021484 C 174.34102 57.971342 174.46878 57.93756 174.60156 57.919922 C 174.73715 57.899764 174.87421 57.890625 175.00977 57.890625 C 175.39389 57.890625 175.76955 57.959325 176.13672 58.097656 C 176.50671 58.233241 176.81808 58.402129 177.07227 58.605469 L 177.24609 58.605469 L 177.24609 57.152344 C 176.94953 57.030894 176.59811 56.930681 176.19141 56.851562 C 175.78753 56.769672 175.37808 56.728516 174.96289 56.728516 z M 54.765625 56.84375 L 54.765625 63.152344 L 56.392578 63.152344 L 56.392578 61.097656 L 57.40625 61.097656 C 57.866627 61.097656 58.250736 61.035196 58.558594 60.908203 C 58.869286 60.781009 59.149027 60.592192 59.400391 60.34375 C 59.583982 60.160165 59.725372 59.934338 59.824219 59.666016 C 59.923066 59.394871 59.972656 59.11837 59.972656 58.835938 C 59.972656 58.471589 59.90509 58.158294 59.769531 57.898438 C 59.636784 57.638506 59.443649 57.426318 59.189453 57.259766 C 58.977623 57.121434 58.733821 57.018952 58.457031 56.951172 C 58.183066 56.88062 57.844425 56.84375 57.443359 56.84375 L 54.765625 56.84375 z M 0 56.845703 L 0 63.152344 L 4.5625 63.152344 L 4.5625 61.933594 L 1.6191406 61.933594 L 1.6191406 60.373047 L 4.3515625 60.373047 L 4.3515625 59.154297 L 1.6191406 59.154297 L 1.6191406 58.064453 L 4.5625 58.064453 L 4.5625 56.845703 L 0 56.845703 z M 33.625 56.845703 L 33.625 63.152344 L 38.175781 63.152344 L 38.175781 61.933594 L 35.251953 61.933594 L 35.251953 56.845703 L 33.625 56.845703 z M 42.751953 56.845703 L 40.421875 63.152344 L 42.060547 63.152344 L 42.498047 61.876953 L 44.835938 61.876953 L 45.271484 63.152344 L 46.953125 63.152344 L 44.623047 56.845703 L 42.751953 56.845703 z M 63.005859 56.845703 L 63.005859 60.873047 C 63.005859 61.649744 63.243171 62.246914 63.714844 62.662109 C 64.189343 63.077305 64.886971 63.285156 65.810547 63.285156 C 66.734125 63.285156 67.433706 63.077305 67.908203 62.662109 C 68.3827 62.246914 68.619141 61.648659 68.619141 60.869141 L 68.619141 56.845703 L 66.984375 56.845703 L 66.984375 60.78125 C 66.984375 61.23603 66.8904 61.565373 66.701172 61.771484 C 66.514763 61.977596 66.217259 62.082031 65.810547 62.082031 C 65.398185 62.082031 65.101553 61.974444 64.917969 61.759766 C 64.734384 61.545113 64.642578 61.219022 64.642578 60.78125 L 64.642578 56.845703 L 63.005859 56.845703 z M 72.111328 56.845703 L 72.111328 63.152344 L 74.865234 63.152344 C 75.322787 63.152344 75.699532 63.114275 75.996094 63.035156 C 76.295485 62.956113 76.569818 62.823176 76.818359 62.636719 C 77.033014 62.478608 77.200817 62.27919 77.322266 62.039062 C 77.446536 61.798986 77.507812 61.525738 77.507812 61.220703 C 77.507812 60.799863 77.387429 60.462087 77.144531 60.205078 C 76.904458 59.948044 76.578377 59.779156 76.166016 59.697266 L 76.166016 59.662109 C 76.459761 59.532143 76.686674 59.350701 76.847656 59.119141 C 77.008639 58.884708 77.087891 58.615581 77.087891 58.310547 C 77.087891 58.047868 77.028783 57.814668 76.910156 57.611328 C 76.794359 57.405141 76.617029 57.242543 76.376953 57.121094 C 76.145356 57.005188 75.911082 56.930248 75.673828 56.896484 C 75.439404 56.862468 75.068939 56.845703 74.560547 56.845703 L 72.111328 56.845703 z M 80.689453 56.845703 L 80.689453 63.152344 L 85.240234 63.152344 L 85.240234 61.933594 L 82.316406 61.933594 L 82.316406 56.845703 L 80.689453 56.845703 z M 87.904297 56.845703 L 87.904297 57.962891 L 88.939453 57.962891 L 88.939453 62.035156 L 87.904297 62.035156 L 87.904297 63.152344 L 91.599609 63.152344 L 91.599609 62.035156 L 90.564453 62.035156 L 90.564453 57.962891 L 91.599609 57.962891 L 91.599609 56.845703 L 87.904297 56.845703 z M 104.77148 56.845703 L 102.44141 63.152344 L 104.08008 63.152344 L 104.51562 61.876953 L 106.85547 61.876953 L 107.29102 63.152344 L 108.97266 63.152344 L 106.64258 56.845703 L 104.77148 56.845703 z M 116.78516 56.845703 L 116.78516 63.152344 L 119.00977 63.152344 C 119.51251 63.152344 119.94728 63.116544 120.31445 63.042969 C 120.68163 62.969595 121.02027 62.838801 121.32812 62.652344 C 121.73766 62.403801 122.07543 62.049159 122.34375 61.585938 C 122.61207 61.11992 122.74609 60.593327 122.74609 60.005859 C 122.74609 59.39579 122.6205 58.865101 122.36914 58.416016 C 122.12059 57.964108 121.77871 57.607297 121.34375 57.341797 C 121.08955 57.18356 120.77712 57.061224 120.4043 56.976562 C 120.03148 56.888877 119.58826 56.845703 119.07422 56.845703 L 116.78516 56.845703 z M 125.95703 56.845703 L 125.95703 63.152344 L 130.52148 63.152344 L 130.52148 61.933594 L 127.57617 61.933594 L 127.57617 60.373047 L 130.30859 60.373047 L 130.30859 59.154297 L 127.57617 59.154297 L 127.57617 58.064453 L 130.52148 58.064453 L 130.52148 56.845703 L 125.95703 56.845703 z M 137.15039 56.845703 L 137.15039 58.064453 L 139.12109 58.064453 L 139.12109 63.152344 L 140.74805 63.152344 L 140.74805 58.064453 L 142.71875 58.064453 L 142.71875 56.845703 L 137.15039 56.845703 z M 145.66602 56.845703 L 145.66602 63.152344 L 147.28516 63.152344 L 147.28516 60.839844 L 148.03516 60.839844 L 149.75586 63.152344 L 151.74219 63.152344 L 149.63672 60.451172 C 150.03778 60.256298 150.34589 60.010543 150.56055 59.716797 C 150.77802 59.423076 150.88672 59.044168 150.88672 58.578125 C 150.88672 58.239075 150.81506 57.957368 150.67383 57.734375 C 150.53544 57.508308 150.34858 57.324697 150.11133 57.183594 C 149.8769 57.042239 149.62574 56.950534 149.35742 56.908203 C 149.0891 56.865872 148.76735 56.845703 148.39453 56.845703 L 145.66602 56.845703 z M 156.05078 56.845703 L 153.7207 63.152344 L 155.35938 63.152344 L 155.79688 61.876953 L 158.13477 61.876953 L 158.57227 63.152344 L 160.25391 63.152344 L 157.92383 56.845703 L 156.05078 56.845703 z M 163.12891 56.845703 L 163.12891 63.152344 L 164.62109 63.152344 L 164.62109 58.824219 L 167.29883 63.152344 L 168.86523 63.152344 L 168.86523 56.845703 L 167.375 56.845703 L 167.375 60.458984 L 165.07422 56.845703 L 163.12891 56.845703 z M 180.29688 56.845703 L 180.29688 57.962891 L 181.33008 57.962891 L 181.33008 62.035156 L 180.29688 62.035156 L 180.29688 63.152344 L 183.99023 63.152344 L 183.99023 62.035156 L 182.95703 62.035156 L 182.95703 57.962891 L 183.99023 57.962891 L 183.99023 56.845703 L 180.29688 56.845703 z M 186.65625 56.845703 L 186.65625 58.064453 L 188.625 58.064453 L 188.625 63.152344 L 190.25195 63.152344 L 190.25195 58.064453 L 192.22266 58.064453 L 192.22266 56.845703 L 186.65625 56.845703 z M 27.164062 57.904297 C 27.367424 57.904297 27.563594 57.941231 27.75 58.017578 C 27.939226 58.093673 28.10595 58.217143 28.25 58.386719 C 28.391228 58.550524 28.504238 58.76575 28.591797 59.03125 C 28.679356 59.29675 28.724609 59.617635 28.724609 59.996094 C 28.724609 60.349154 28.685621 60.657243 28.609375 60.919922 C 28.533104 61.179829 28.415973 61.405655 28.257812 61.597656 C 28.116584 61.767232 27.950947 61.892719 27.761719 61.974609 C 27.572488 62.053728 27.37307 62.09375 27.164062 62.09375 C 26.955052 62.09375 26.757588 62.053728 26.568359 61.974609 C 26.379134 61.895491 26.213494 61.773974 26.072266 61.607422 C 25.931062 61.440769 25.816075 61.225544 25.728516 60.962891 C 25.643779 60.69739 25.601562 60.37759 25.601562 60.001953 C 25.601562 59.634758 25.644863 59.311945 25.732422 59.035156 C 25.822803 58.755621 25.93885 58.537143 26.080078 58.378906 C 26.232595 58.209331 26.399316 58.086995 26.580078 58.013672 C 26.763657 57.940097 26.957877 57.904297 27.164062 57.904297 z M 198.05664 57.904297 C 198.25995 57.904297 198.45417 57.941231 198.64062 58.017578 C 198.82978 58.093673 198.9965 58.217143 199.14062 58.386719 C 199.28173 58.550524 199.39669 58.76575 199.48438 59.03125 C 199.57181 59.29675 199.61523 59.617635 199.61523 59.996094 C 199.61523 60.349154 199.57635 60.657243 199.5 60.919922 C 199.42391 61.179829 199.30667 61.405655 199.14844 61.597656 C 199.00721 61.767232 198.84353 61.892719 198.6543 61.974609 C 198.46519 62.053728 198.26577 62.09375 198.05664 62.09375 C 197.84763 62.09375 197.64821 62.053728 197.45898 61.974609 C 197.26963 61.895491 197.10399 61.773974 196.96289 61.607422 C 196.82179 61.440769 196.70683 61.225544 196.61914 60.962891 C 196.53448 60.69739 196.49219 60.37759 196.49219 60.001953 C 196.49219 59.634758 196.53731 59.311945 196.625 59.035156 C 196.71546 58.755621 196.83155 58.537143 196.97266 58.378906 C 197.12527 58.209331 197.29199 58.086995 197.47266 58.013672 C 197.65632 57.940097 197.85053 57.904297 198.05664 57.904297 z M 73.728516 58.001953 L 73.880859 58.001953 C 74.200008 58.001953 74.447929 58.004726 74.623047 58.009766 C 74.800982 58.012537 74.949733 58.036929 75.068359 58.082031 C 75.201096 58.132929 75.292903 58.209886 75.34375 58.314453 C 75.397419 58.418769 75.423828 58.524339 75.423828 58.628906 L 75.423828 58.630859 C 75.423828 58.766419 75.400647 58.88762 75.355469 58.992188 C 75.310291 59.093731 75.215232 59.175226 75.068359 59.240234 C 74.963858 59.289116 74.821387 59.318613 74.640625 59.326172 C 74.459863 59.333731 74.241393 59.337891 73.984375 59.337891 L 73.728516 59.337891 L 73.728516 58.001953 z M 147.28516 58.007812 L 147.87305 58.007812 C 148.06792 58.007812 148.23985 58.013359 148.38672 58.023438 C 148.53358 58.032004 148.66132 58.058413 148.77148 58.103516 C 148.92965 58.168524 149.04246 58.256258 149.10742 58.369141 C 149.17238 58.482048 149.20508 58.619107 149.20508 58.777344 L 149.20508 58.779297 C 149.20508 58.957213 149.17672 59.099692 149.12305 59.207031 C 149.07222 59.311347 148.99189 59.406455 148.87891 59.494141 C 148.76029 59.584346 148.61262 59.64252 148.4375 59.667969 C 148.26239 59.693418 148.045 59.707031 147.78516 59.707031 L 147.28516 59.707031 L 147.28516 58.007812 z M 56.392578 58.023438 L 56.671875 58.023438 C 56.940201 58.023438 57.155424 58.027597 57.316406 58.035156 C 57.477384 58.040952 57.643026 58.078705 57.8125 58.146484 C 57.939593 58.19713 58.050459 58.285999 58.146484 58.416016 C 58.24251 58.54316 58.291016 58.697109 58.291016 58.875 C 58.291016 59.055864 58.266775 59.210898 58.21875 59.337891 C 58.173547 59.462112 58.098632 59.567746 57.994141 59.658203 C 57.872692 59.759747 57.721778 59.829265 57.541016 59.863281 C 57.363078 59.897297 57.136165 59.914062 56.859375 59.914062 L 56.392578 59.914062 L 56.392578 58.023438 z M 118.41211 58.023438 L 118.82422 58.023438 C 119.17443 58.023438 119.43513 58.03932 119.60742 58.070312 C 119.78252 58.098533 119.95249 58.154438 120.11914 58.236328 C 120.44677 58.402956 120.68624 58.633119 120.83594 58.929688 C 120.98845 59.223434 121.06445 59.57897 121.06445 59.994141 C 121.06445 60.412158 120.99583 60.763573 120.85742 61.048828 C 120.71903 61.331412 120.50164 61.557239 120.20508 61.726562 C 120.03279 61.819791 119.85654 61.885087 119.67578 61.921875 C 119.49502 61.955639 119.21116 61.972656 118.82422 61.972656 L 118.41211 61.972656 L 118.41211 58.023438 z M 43.666016 58.458984 L 44.441406 60.720703 L 42.890625 60.720703 L 43.666016 58.458984 z M 105.68555 58.458984 L 106.46094 60.720703 L 104.91016 60.720703 L 105.68555 58.458984 z M 156.96484 58.458984 L 157.74023 60.720703 L 156.18945 60.720703 L 156.96484 58.458984 z M 73.728516 60.425781 L 74.085938 60.425781 C 74.328845 60.425781 74.560085 60.427168 74.783203 60.429688 C 75.006334 60.432459 75.181501 60.451494 75.308594 60.488281 C 75.494992 60.541951 75.626854 60.624264 75.703125 60.734375 C 75.782218 60.841664 75.822266 60.994745 75.822266 61.195312 L 75.822266 61.197266 C 75.822266 61.349732 75.789567 61.484838 75.724609 61.603516 C 75.662474 61.719422 75.546427 61.812261 75.376953 61.882812 C 75.210326 61.953868 75.027798 61.991621 74.830078 61.994141 C 74.632371 61.99666 74.305208 61.996094 73.847656 61.996094 L 73.728516 61.996094 L 73.728516 60.425781 z "
           transform="matrix(0.26458333,0,0,0.26458206,59.794188,94.618822)" />
        <g
           id="g71468"
           transform="matrix(-1,0,0,1,172.59275,0)"
           style="fill:#ffffff;fill-opacity:1;stroke-width:0.999998" />
      </g>
    </g>
  </g>
</svg>
