<?xml version="1.0" encoding="UTF-8" standalone="no"?>
<!-- Created with Inkscape (http://www.inkscape.org/) -->

<svg
   width="297mm"
   height="210mm"
   viewBox="0 0 297 210"
   version="1.1"
   id="svg5"
   inkscape:version="1.1.2 (b8e25be833, 2022-02-05)"
   sodipodi:docname="desenho-pagina-principal.svg"
   xmlns:inkscape="http://www.inkscape.org/namespaces/inkscape"
   xmlns:sodipodi="http://sodipodi.sourceforge.net/DTD/sodipodi-0.dtd"
   xmlns="http://www.w3.org/2000/svg"
   xmlns:svg="http://www.w3.org/2000/svg">
  <sodipodi:namedview
     id="namedview7"
     pagecolor="#3b3b3b"
     bordercolor="#666666"
     borderopacity="1.0"
     inkscape:pageshadow="2"
     inkscape:pageopacity="0"
     inkscape:pagecheckerboard="true"
     inkscape:document-units="mm"
     showgrid="false"
     inkscape:snap-global="false"
     inkscape:snap-bbox="true"
     inkscape:bbox-paths="true"
     inkscape:bbox-nodes="true"
     inkscape:snap-bbox-edge-midpoints="true"
     inkscape:snap-bbox-midpoints="true"
     inkscape:zoom="0.70710678"
     inkscape:cx="994.19214"
     inkscape:cy="524.67323"
     inkscape:window-width="1920"
     inkscape:window-height="1017"
     inkscape:window-x="-8"
     inkscape:window-y="-8"
     inkscape:window-maximized="1"
     inkscape:current-layer="g12823" />
  <defs
     id="defs2">
    <rect
       x="221.12047"
       y="400.21371"
       width="950.7854"
       height="63.757198"
       id="rect78332" />
    <rect
       x="250.91219"
       y="335.33755"
       width="272.52368"
       height="63.128952"
       id="rect7986" />
    <rect
       x="250.91219"
       y="335.33755"
       width="272.52368"
       height="63.128952"
       id="rect47960" />
    <rect
       x="250.91219"
       y="335.33755"
       width="272.52368"
       height="63.128952"
       id="rect49862" />
    <rect
       x="250.91219"
       y="335.33755"
       width="272.52368"
       height="63.128952"
       id="rect51830" />
    <rect
       x="250.91219"
       y="335.33755"
       width="272.52368"
       height="63.128952"
       id="rect53302" />
    <rect
       x="250.91219"
       y="335.33755"
       width="272.52368"
       height="63.128952"
       id="rect54874" />
    <rect
       x="250.91219"
       y="335.33755"
       width="272.52368"
       height="63.128952"
       id="rect56194" />
    <rect
       x="221.12047"
       y="400.21371"
       width="950.7854"
       height="63.757198"
       id="rect94204" />
    <rect
       x="221.12047"
       y="400.21371"
       width="950.7854"
       height="63.757198"
       id="rect105126" />
    <clipPath
       clipPathUnits="userSpaceOnUse"
       id="clipPath999">
      <rect
         style="fill:#000000;fill-opacity:0.247059;stroke:none;stroke-width:1.865;stroke-linecap:round;stroke-linejoin:round;stroke-miterlimit:4;stroke-dasharray:none;stroke-dashoffset:39.3789;stroke-opacity:0.198488"
         id="rect1001"
         width="297"
         height="210"
         x="0"
         y="0"
         ry="0" />
    </clipPath>
  </defs>
  <g
     inkscape:label="Camada 1"
     inkscape:groupmode="layer"
     id="layer1">
    <g
       id="g12823"
       clip-path="url(#clipPath999)">
      <rect
         style="fill:#cccccc;stroke:none;stroke-width:4.53901;stroke-linecap:round;stroke-linejoin:round"
         id="rect846"
         width="239.20653"
         height="88.635368"
         x="30.02166"
         y="120.80147"
         ry="0"
         clip-path="none" />
      <g
         inkscape:label="Camada 1"
         id="layer1-3"
         transform="matrix(1,0,0,2.5438339,128.04814,77.412391)"
         style="stroke-width:0.626983"
         clip-path="none">
        <path
           style="fill:#ffffff;fill-opacity:1;stroke-width:0.626983"
           id="path890"
           d="" />
        <g
           id="g109924"
           transform="matrix(1,0,0,1.0000048,-59.794188,-94.619276)"
           style="stroke-width:0.626982">
          <g
             id="g123611"
             style="stroke-width:0.626982">
            <path
               id="path123827"
               style="font-weight:bold;font-size:40px;line-height:1.15;font-family:Arial;-inkscape-font-specification:Arial;letter-spacing:20.5014px;word-spacing:5.84755px;white-space:pre;fill:#ffffff;stroke-width:0.165889"
               d="m 43.49359,121.57821 -33.134028,22.32543 h 20.293983 l 24.370524,-22.32543 z m 23.149674,0 -15.40214,22.32543 h 20.752334 l 4.44406,-22.32543 z m 20.672062,0 4.44407,22.32543 H 112.51172 L 97.10958,121.57821 Z m 21.411344,0 24.37262,22.32543 h 20.294 l -33.13613,-22.32543 z m -87.117549,0.19996 -45.853676,22.12553 H -6.5316736 L 31.680074,121.77817 Z m 110.463659,0 38.21175,22.12553 h 17.71285 l -45.85364,-22.12553 z"
               sodipodi:nodetypes="cccccccccccccccccccccccccccccc" />
            <g
               id="g71468"
               transform="matrix(-1,0,0,1,172.59275,0)"
               style="fill:#ffffff;fill-opacity:1;stroke-width:0.626982" />
          </g>
        </g>
      </g>
      <g
         id="g1636"
         clip-path="none">
        <rect
           style="fill:#b3b3b3;fill-opacity:1;stroke:none;stroke-width:5.20068;stroke-linecap:round;stroke-linejoin:round"
           id="rect1196"
           width="122.25592"
           height="116.36018"
           x="-212.65906"
           y="158.58769"
           transform="matrix(-1,0,0.64789119,0.7617329,0,0)" />
        <rect
           style="fill:#7aba78;fill-opacity:1;stroke:none;stroke-width:5.43482;stroke-linecap:round;stroke-linejoin:round"
           id="rect1614"
           width="122.25592"
           height="127.07353"
           x="-222.13606"
           y="173.18895"
           transform="matrix(-1,0,0.71657258,0.69751254,0,0)" />
      </g>
      <g
         id="g1722"
         transform="matrix(-1,0,0,1,299.88825,0)"
         clip-path="none">
        <rect
           style="fill:#b3b3b3;fill-opacity:1;stroke:none;stroke-width:5.20068;stroke-linecap:round;stroke-linejoin:round"
           id="rect1718"
           width="122.25592"
           height="116.36018"
           x="-212.65906"
           y="158.58769"
           transform="matrix(-1,0,0.64789119,0.7617329,0,0)" />
        <rect
           style="fill:#7aba78;fill-opacity:1;stroke:none;stroke-width:5.43482;stroke-linecap:round;stroke-linejoin:round"
           id="rect1720"
           width="122.25592"
           height="127.07353"
           x="-222.13606"
           y="173.18895"
           transform="matrix(-1,0,0.71657258,0.69751254,0,0)" />
      </g>
      <path
         id="path9334"
         style="color:#000000;fill:#000000;fill-opacity:0.247637;stroke-width:3.77953;stroke-linecap:round;stroke-linejoin:round;stroke-miterlimit:4;stroke-dasharray:none"
         d="M 282.5332 558.96484 A 2.4217373 6.6900907 80.633183 0 0 273.98633 561.58789 L 190.51953 653.73633 C 186.43098 658.25007 186.02843 662.4811 189.72852 665.62695 C 193.42857 668.77284 201.39503 670.74219 212.74023 670.74219 L 342.36328 670.74219 L 334.93555 683.2832 C 332.93688 686.65779 334.48615 689.375 338.4082 689.375 L 349.32422 689.375 C 353.24627 689.375 358.0111 686.65779 360.00977 683.2832 L 367.4375 670.74219 L 384.8125 670.74219 A 2.4217373 6.6900907 80.633183 0 0 393.36328 668.11523 A 2.4217373 6.6900907 80.633183 0 0 389.56836 665.49219 L 370.54883 665.49219 L 379.03516 651.16406 C 381.03382 647.78948 379.48455 645.07227 375.5625 645.07227 L 364.64648 645.07227 C 360.72443 645.07227 355.95765 647.78948 353.95898 651.16406 L 345.47266 665.49219 L 217.49609 665.49219 C 209.36975 665.49219 204.55063 664.2171 202.11523 662.14648 C 199.67985 660.07587 199.78917 657.11935 202.85352 653.73633 L 286.32227 561.58789 A 2.4217373 6.6900907 80.633183 0 0 282.5332 558.96484 z "
         transform="scale(0.26458333)"
         clip-path="none" />
      <path
         style="fill:none;stroke:#fdf100;stroke-width:2.265;stroke-linecap:butt;stroke-linejoin:miter;stroke-miterlimit:4;stroke-dasharray:2.265, 2.265;stroke-dashoffset:10.419;stroke-opacity:1"
         d="m 150.62139,120.67402 v 18.95403"
         id="path1757"
         clip-path="none" />
      <path
         id="path11924"
         style="fill:none;stroke:#000000;stroke-width:1.86501;stroke-linecap:round;stroke-linejoin:round;stroke-miterlimit:4;stroke-dasharray:none;stroke-opacity:0.247059"
         d="m 205.16005,129.56201 16.64634,19.85808 z"
         sodipodi:nodetypes="ccc"
         clip-path="none" />
      <path
         style="fill:none;stroke:#666666;stroke-width:1.865;stroke-linecap:round;stroke-linejoin:miter;stroke-miterlimit:4;stroke-dasharray:none;stroke-opacity:1"
         d="M 204.90364,129.38879 V 112.62411"
         id="path3756"
         clip-path="none" />
      <path
         style="fill:#999999;stroke:#808080;stroke-width:1.065;stroke-linecap:round;stroke-linejoin:miter;stroke-miterlimit:4;stroke-dasharray:none;stroke-opacity:1"
         d="m 205.32671,114.72564 13.04513,14.11732"
         id="path2911"
         sodipodi:nodetypes="cc"
         clip-path="none" />
      <path
         style="fill:#999999;stroke:#808080;stroke-width:1.065;stroke-linecap:round;stroke-linejoin:miter;stroke-miterlimit:4;stroke-dasharray:none;stroke-opacity:1"
         d="m 205.32671,124.49623 13.04513,14.11732"
         id="path3592"
         sodipodi:nodetypes="cc"
         clip-path="none" />
      <path
         style="fill:none;stroke:#666666;stroke-width:1.865;stroke-linecap:round;stroke-linejoin:miter;stroke-miterlimit:4;stroke-dasharray:none;stroke-opacity:1"
         d="M 218.55055,145.8195 V 126.51986"
         id="path2876"
         clip-path="none" />
      <path
         style="fill:none;stroke:#999999;stroke-width:3.265;stroke-linecap:round;stroke-linejoin:round;stroke-miterlimit:4;stroke-dasharray:none;stroke-opacity:1"
         d="M 74.223872,147.84876 V 90.561253 c 0,-4.90948 3.171127,-8.940983 8.322979,-8.940983 h 45.527069"
         id="path3791"
         sodipodi:nodetypes="cccc"
         clip-path="none" />
      <rect
         style="fill:#000000;fill-opacity:1;stroke:none;stroke-width:3.26502;stroke-linecap:round;stroke-linejoin:round;stroke-miterlimit:4;stroke-dasharray:none;stroke-dashoffset:39.3789;stroke-opacity:1"
         id="rect5722"
         width="8.657217"
         height="21.516523"
         x="118.26898"
         y="76.785088"
         ry="2.9583709"
         clip-path="none" />
      <circle
         style="fill:#ff0000;fill-opacity:1;stroke:none;stroke-width:3.26501;stroke-linecap:round;stroke-linejoin:round;stroke-miterlimit:4;stroke-dasharray:none;stroke-dashoffset:39.3789;stroke-opacity:1"
         id="path6090"
         cx="122.50625"
         cy="80.554649"
         r="2.7167451"
         clip-path="none" />
      <circle
         style="fill:#85650a;fill-opacity:1;stroke:none;stroke-width:3.26501;stroke-linecap:round;stroke-linejoin:round;stroke-miterlimit:4;stroke-dasharray:none;stroke-dashoffset:39.3789;stroke-opacity:1"
         id="circle6347"
         cx="122.50625"
         cy="87.523964"
         r="2.7167451"
         clip-path="none" />
      <circle
         style="fill:#2e562c;fill-opacity:1;stroke:none;stroke-width:3.26501;stroke-linecap:round;stroke-linejoin:round;stroke-miterlimit:4;stroke-dasharray:none;stroke-dashoffset:39.3789;stroke-opacity:1"
         id="circle6385"
         cx="122.50625"
         cy="93.778473"
         r="2.7167451"
         clip-path="none" />
      <g
         id="g7495"
         transform="matrix(0.5409837,-0.44964863,0,1,40.057084,47.388694)"
         style="stroke-width:1.35959"
         clip-path="none">
        <g
           id="g9332"
           transform="matrix(0.49009088,0,0,0.49009088,16.346477,42.693989)"
           style="stroke-width:2.77416">
          <g
             id="g9190"
             style="stroke-width:2.77416">
            <path
               id="rect7591-2"
               style="fill:#4d4d4d;fill-opacity:1;stroke:none;stroke-width:5.89962;stroke-linecap:round;stroke-linejoin:round;stroke-miterlimit:4;stroke-dasharray:none;stroke-dashoffset:39.3789;stroke-opacity:1"
               d="m 324.45312,408.04297 c -0.17199,0 -0.3401,0.0255 -0.50585,0.0703 -0.51643,0.0188 -1.08593,0.26333 -1.68555,0.76172 l -10.9961,9.14062 c -1.72878,1.43692 -3.20678,4.5564 -3.87304,7.83594 -0.24021,1.00592 -0.37891,2.13166 -0.37891,3.32813 v 0.23242 62.32031 2.13086 c 0,3.23116 1.04381,5.12627 2.54492,5.08984 0.38219,0.26348 0.7915,0.40821 1.21875,0.40821 h 17.20704 c 2.08539,0 3.76562,-3.40233 3.76562,-7.62891 v -5.8789 h 9.91211 c 2.08539,0 3.76367,-3.40233 3.76367,-7.62891 v -62.55273 c 0,-4.22658 -1.67828,-7.62891 -3.76367,-7.62891 z"
               transform="matrix(0.4890782,0.21991334,0,0.26458333,-74.0449,-80.682882)" />
          </g>
          <rect
             style="fill:#000000;fill-opacity:1;stroke:none;stroke-width:2.12224;stroke-linecap:round;stroke-linejoin:round;stroke-miterlimit:4;stroke-dasharray:none;stroke-dashoffset:39.3789;stroke-opacity:1"
             id="rect7591"
             width="9.5381336"
             height="21.212809"
             x="85.320679"
             y="102.60269"
             ry="2.0798848" />
          <g
             id="g7729"
             style="stroke-width:2.77416">
            <path
               style="fill:none;stroke:#7aba78;stroke-width:2.12224;stroke-linecap:butt;stroke-linejoin:miter;stroke-miterlimit:4;stroke-dasharray:none;stroke-opacity:1"
               d="m 87.384476,108.71959 h 5.00361"
               id="path7356" />
            <path
               style="fill:none;stroke:#7aba78;stroke-width:2.12224;stroke-linecap:butt;stroke-linejoin:miter;stroke-miterlimit:4;stroke-dasharray:none;stroke-opacity:1"
               d="m 88.166291,112.53655 1.708822,-1.70882 1.686483,1.68648"
               id="path7358" />
            <path
               style="fill:none;stroke:#7aba78;stroke-width:2.12224;stroke-linecap:butt;stroke-linejoin:miter;stroke-miterlimit:4;stroke-dasharray:none;stroke-opacity:1"
               d="m 89.886281,110.88357 v -5.09296"
               id="path7360" />
            <circle
               style="fill:#7aba78;fill-opacity:1;stroke:none;stroke-width:9.05765;stroke-linecap:round;stroke-linejoin:round;stroke-miterlimit:4;stroke-dasharray:none;stroke-dashoffset:39.3789;stroke-opacity:1"
               id="path7384"
               cx="89.886284"
               cy="105.79061"
               r="1.5301218" />
          </g>
          <g
             id="g7739"
             transform="translate(0,9.873195)"
             style="stroke-width:2.77416">
            <path
               style="fill:none;stroke:#860000;stroke-width:2.12224;stroke-linecap:butt;stroke-linejoin:miter;stroke-miterlimit:4;stroke-dasharray:none;stroke-opacity:1"
               d="m 88.602688,110.11848 c 0.842619,-1.81595 1.69722,-1.91381 2.565851,0"
               id="path7731"
               sodipodi:nodetypes="cc" />
            <path
               style="fill:none;stroke:#860000;stroke-width:2.12224;stroke-linecap:butt;stroke-linejoin:miter;stroke-miterlimit:4;stroke-dasharray:none;stroke-opacity:1"
               d="m 89.208763,112.53655 0.66635,-2.78288 0.549241,2.76054"
               id="path7733"
               sodipodi:nodetypes="ccc" />
            <path
               style="fill:none;stroke:#860000;stroke-width:2.12224;stroke-linecap:butt;stroke-linejoin:miter;stroke-miterlimit:4;stroke-dasharray:none;stroke-opacity:1"
               d="m 89.886281,110.88357 v -5.09296"
               id="path7735" />
            <circle
               style="fill:#860000;fill-opacity:1;stroke:none;stroke-width:9.05765;stroke-linecap:round;stroke-linejoin:round;stroke-miterlimit:4;stroke-dasharray:none;stroke-dashoffset:39.3789;stroke-opacity:1"
               id="circle7737"
               cx="89.886284"
               cy="105.79061"
               r="1.5301218" />
          </g>
        </g>
      </g>
      <g
         id="g18201"
         transform="matrix(-1.0144802,0,0,1.0621256,272.08444,24.898317)"
         style="fill:#000000;fill-opacity:1;stroke-width:5.07115;stroke-miterlimit:4;stroke-dasharray:none">
        <path
           style="fill:#000000;fill-opacity:1;stroke:#000000;stroke-width:5.07115;stroke-linecap:round;stroke-linejoin:round;stroke-miterlimit:4;stroke-dasharray:none;stroke-opacity:1"
           d="m 35.815127,110.98334 5.18077,-8.65048 7.652792,-7.217466"
           id="path12097"
           sodipodi:nodetypes="ccc" />
        <path
           style="fill:#000000;fill-opacity:1;stroke:#000000;stroke-width:5.07115;stroke-linecap:round;stroke-linejoin:round;stroke-miterlimit:4;stroke-dasharray:none;stroke-opacity:1"
           d="m 57.493907,131.92008 c -0.379081,-0.75816 -2.527205,-10.61426 -2.527205,-10.61426 l -6.318011,-11.49878"
           id="path12245"
           sodipodi:nodetypes="ccc" />
        <path
           style="fill:#000000;fill-opacity:1;stroke:#000000;stroke-width:5.07115;stroke-linecap:round;stroke-linejoin:round;stroke-miterlimit:4;stroke-dasharray:none;stroke-opacity:1"
           d="m 35.707846,131.38295 c 0.467046,-0.70737 8.032123,-9.34763 8.032123,-9.34763 l 4.90872,-12.22828"
           id="path12247"
           sodipodi:nodetypes="ccc" />
        <path
           style="fill:#000000;fill-opacity:1;stroke:#000000;stroke-width:5.07115;stroke-linecap:round;stroke-linejoin:miter;stroke-miterlimit:4;stroke-dasharray:none;stroke-opacity:1"
           d="M 48.648689,109.80704 V 95.115394"
           id="path12820"
           sodipodi:nodetypes="cc" />
        <path
           style="fill:#000000;fill-opacity:1;stroke:#000000;stroke-width:5.07115;stroke-linecap:round;stroke-linejoin:round;stroke-miterlimit:4;stroke-dasharray:none;stroke-opacity:1"
           d="m 62.608258,108.19384 c -0.441667,-0.50611 -7.791644,-5.26459 -7.791644,-5.26459 l -6.167925,-7.813856"
           id="path13247"
           sodipodi:nodetypes="ccc" />
        <ellipse
           style="fill:#000000;fill-opacity:1;stroke:none;stroke-width:5.07115;stroke-linecap:round;stroke-linejoin:round;stroke-miterlimit:4;stroke-dasharray:none;stroke-dashoffset:39.3789;stroke-opacity:1"
           id="path19667"
           cx="49.189281"
           cy="86.123116"
           rx="5.4709239"
           ry="5.0058756" />
      </g>
    </g>
  </g>
</svg>
