<?xml version="1.0" encoding="UTF-8" standalone="no"?>
<!-- Created with Inkscape (http://www.inkscape.org/) -->

<svg
   width="95.968002mm"
   height="84.610001mm"
   viewBox="0 0 95.968002 84.610001"
   version="1.1"
   id="svg5"
   inkscape:version="1.1.2 (b8e25be833, 2022-02-05)"
   sodipodi:docname="logout_icone.svg"
   xmlns:inkscape="http://www.inkscape.org/namespaces/inkscape"
   xmlns:sodipodi="http://sodipodi.sourceforge.net/DTD/sodipodi-0.dtd"
   xmlns="http://www.w3.org/2000/svg"
   xmlns:svg="http://www.w3.org/2000/svg">
  <sodipodi:namedview
     id="namedview7"
     pagecolor="#6a6a6a"
     bordercolor="#666666"
     borderopacity="1.0"
     inkscape:pageshadow="2"
     inkscape:pageopacity="0.02745098"
     inkscape:pagecheckerboard="true"
     inkscape:document-units="mm"
     showgrid="false"
     inkscape:snap-global="true"
     inkscape:zoom="2.0938813"
     inkscape:cx="192.94313"
     inkscape:cy="139.45394"
     inkscape:window-width="1920"
     inkscape:window-height="1017"
     inkscape:window-x="-8"
     inkscape:window-y="-8"
     inkscape:window-maximized="1"
     inkscape:current-layer="layer1" />
  <defs
     id="defs2" />
  <g
     inkscape:label="Camada 1"
     inkscape:groupmode="layer"
     id="layer1">
    <g
       id="g1324"
       style="fill:none;stroke:#ffffff;stroke-width:4.539;stroke-miterlimit:4;stroke-dasharray:none"
       transform="translate(-44.607842,-168.60347)">
      <path
         style="fill:none;stroke:#ffffff;stroke-width:4.539;stroke-linecap:round;stroke-linejoin:round;stroke-miterlimit:4;stroke-dasharray:none;stroke-opacity:1"
         d="M 137.95667,210.15162 125.44765,197.6426"
         id="path1443"
         sodipodi:nodetypes="cc" />
      <path
         style="fill:none;stroke:#ffffff;stroke-width:4.539;stroke-linecap:round;stroke-linejoin:round;stroke-miterlimit:4;stroke-dasharray:none;stroke-opacity:1"
         d="m 110.43682,210.15162 h 27.51985 l -12.50902,12.50902"
         id="path1676"
         sodipodi:nodetypes="ccc" />
    </g>
    <path
       id="rect3344"
       style="color:#000000;fill:#ffffff;stroke-width:1;-inkscape-stroke:none"
       d="m 20.123047,0.53320312 c -2.182622,0.0264561 -3.835788,0.0759752 -6.017708,0.13671876 3.353293,1.32446722 6.674532,2.77906972 10.035545,4.05336632 8.186479,0.065724 15.84574,0.075634 24.031016,0.1758769 3.711667,0.2138449 6.911652,3.1749525 7.748131,6.7425369 0.545694,2.212847 0.215588,4.514719 0.306531,6.767673 -0.0078,13.179547 0.01563,26.362296 -0.01172,39.539844 -0.58343,3.041048 -2.082632,6.14846 -4.908203,7.677734 -1.358557,0.7631 -2.362036,1.164994 -3.898568,1.367188 V 71.25 c 4.780594,-0.122004 8.980144,-2.698513 11.357812,-6.902078 1.269453,-2.132845 1.802138,-4.644257 1.640365,-7.111985 -0.01043,-14.607233 0.02085,-29.214934 -0.01563,-43.821875 C 60.230002,9.9606937 58.714823,6.5686191 56.15674,4.1570516 53.691754,1.7800054 50.242966,0.52527162 46.828922,0.69029618 37.926961,0.64123624 29.025046,0.56503654 20.123047,0.53320312 Z"
       sodipodi:nodetypes="cccccccccccccccc" />
    <path
       id="rect950"
       style="color:#000000;fill:#ffffff;stroke-width:0.962107;-inkscape-stroke:none"
       d="M 8.3945312,0.80273438 C 5.5399384,0.87435716 2.8316254,2.6362909 1.6392015,5.2355557 0.16171565,8.1290547 0.59402199,11.459546 0.52929688,14.588281 c 0.0133503,14.216781 -0.0267096,28.434271 0.0200449,42.650608 0.137537,4.540661 1.62067307,9.279305 4.63516087,12.85455 2.571431,3.159157 6.2317464,5.264654 10.0026504,6.592918 5.965565,2.310429 11.910939,4.676151 17.889019,6.952315 5.034992,1.66802 11.05906,-1.544554 12.499767,-6.638819 0.460183,-1.89314 0.156585,-3.864958 0.244373,-5.792822 -0.0117,-14.21283 0.02341,-28.426143 -0.01758,-42.638672 C 45.608515,23.084138 43.06959,17.595489 39.018829,13.798748 36.842233,11.689208 34.130151,10.094123 31.245875,9.0295851 25.038405,6.5141494 18.860168,3.9222769 12.634205,1.455169 11.275252,0.98974187 9.8329935,0.73772008 8.3945312,0.80273438 Z M 10.876953,6.1191406 c 2.404412,0.06335 4.507379,1.3926237 6.718171,2.1796711 5.262678,2.1736693 10.559701,4.2728283 15.801209,6.4924083 2.717932,1.539332 4.742551,4.079226 6.267114,6.75973 1.138314,2.035088 1.832549,4.354836 1.666631,6.703347 -0.0078,15.066186 0.01567,30.133086 -0.01172,45.198828 -0.05071,2.390148 -1.304243,4.959204 -3.678197,5.781571 C 35.483346,80.0587 33.15578,79.305192 31.16114,78.390142 25.06279,75.878428 18.936581,73.429608 12.855443,70.87903 8.7211026,68.803053 5.7699565,64.563681 5.1152344,60 4.9041587,57.52529 5.0742913,55.032579 5.0195312,52.550781 5.0321538,39.084765 4.9943392,25.617357 5.0383432,12.152205 5.1096855,9.7939002 6.3715591,7.279985 8.7094477,6.4703825 9.3993117,6.2093318 10.141768,6.1087272 10.876953,6.1191406 Z" />
  </g>
</svg>
